<mxfile host="app.diagrams.net" modified="2023-03-02T10:16:46.596Z" agent="5.0 (Macintosh; Intel Mac OS X 10_15_7) AppleWebKit/605.1.15 (KHTML, like Gecko) Version/16.3 Safari/605.1.15" etag="qOCmWoLjTRa5KU6QYEFw" version="20.8.23" type="github">
  <diagram id="fp1eQAvoJv0iTCpCTrHx" name="第 1 页">
    <mxGraphModel dx="1434" dy="802" grid="1" gridSize="10" guides="1" tooltips="1" connect="1" arrows="1" fold="1" page="1" pageScale="1" pageWidth="827" pageHeight="1169" math="0" shadow="0">
      <root>
        <mxCell id="0" />
        <mxCell id="1" parent="0" />
        <mxCell id="fy3N8-9pnjikFsvQf7iu-18" style="edgeStyle=orthogonalEdgeStyle;curved=1;rounded=0;orthogonalLoop=1;jettySize=auto;html=1;exitX=0.5;exitY=1;exitDx=0;exitDy=0;fontFamily=Helvetica;fontSize=12;fontColor=default;" edge="1" parent="1" source="4n-wWhs2phE5Xwmmcod8-1" target="fy3N8-9pnjikFsvQf7iu-13">
          <mxGeometry relative="1" as="geometry" />
        </mxCell>
        <mxCell id="4n-wWhs2phE5Xwmmcod8-1" value="user" style="rounded=1;whiteSpace=wrap;html=1;" parent="1" vertex="1">
          <mxGeometry x="190" y="140" width="120" height="60" as="geometry" />
        </mxCell>
        <mxCell id="fy3N8-9pnjikFsvQf7iu-15" style="edgeStyle=orthogonalEdgeStyle;rounded=0;orthogonalLoop=1;jettySize=auto;html=1;exitX=0.5;exitY=1;exitDx=0;exitDy=0;entryX=0.5;entryY=0;entryDx=0;entryDy=0;fontFamily=Helvetica;fontSize=12;fontColor=default;curved=1;" edge="1" parent="1" source="fy3N8-9pnjikFsvQf7iu-3" target="fy3N8-9pnjikFsvQf7iu-6">
          <mxGeometry relative="1" as="geometry" />
        </mxCell>
        <mxCell id="fy3N8-9pnjikFsvQf7iu-17" style="edgeStyle=orthogonalEdgeStyle;curved=1;rounded=0;orthogonalLoop=1;jettySize=auto;html=1;exitX=0.5;exitY=1;exitDx=0;exitDy=0;fontFamily=Helvetica;fontSize=12;fontColor=default;" edge="1" parent="1" source="fy3N8-9pnjikFsvQf7iu-3" target="fy3N8-9pnjikFsvQf7iu-16">
          <mxGeometry relative="1" as="geometry" />
        </mxCell>
        <mxCell id="fy3N8-9pnjikFsvQf7iu-3" value="regiment" style="rounded=1;whiteSpace=wrap;html=1;" vertex="1" parent="1">
          <mxGeometry x="460" y="140" width="120" height="60" as="geometry" />
        </mxCell>
        <mxCell id="fy3N8-9pnjikFsvQf7iu-20" value="" style="edgeStyle=orthogonalEdgeStyle;curved=1;rounded=0;orthogonalLoop=1;jettySize=auto;html=1;fontFamily=Helvetica;fontSize=12;fontColor=default;" edge="1" parent="1" source="fy3N8-9pnjikFsvQf7iu-6" target="fy3N8-9pnjikFsvQf7iu-19">
          <mxGeometry relative="1" as="geometry" />
        </mxCell>
        <mxCell id="fy3N8-9pnjikFsvQf7iu-6" value="time_limit" style="whiteSpace=wrap;html=1;rounded=1;" vertex="1" parent="1">
          <mxGeometry x="350" y="280" width="120" height="60" as="geometry" />
        </mxCell>
        <mxCell id="fy3N8-9pnjikFsvQf7iu-30" value="" style="edgeStyle=orthogonalEdgeStyle;curved=1;rounded=0;orthogonalLoop=1;jettySize=auto;html=1;fontFamily=Helvetica;fontSize=12;fontColor=default;" edge="1" parent="1" source="fy3N8-9pnjikFsvQf7iu-13" target="fy3N8-9pnjikFsvQf7iu-29">
          <mxGeometry relative="1" as="geometry" />
        </mxCell>
        <mxCell id="fy3N8-9pnjikFsvQf7iu-13" value="outTradeNo" style="whiteSpace=wrap;html=1;rounded=1;" vertex="1" parent="1">
          <mxGeometry x="190" y="370" width="120" height="60" as="geometry" />
        </mxCell>
        <mxCell id="fy3N8-9pnjikFsvQf7iu-26" value="" style="edgeStyle=orthogonalEdgeStyle;curved=1;rounded=0;orthogonalLoop=1;jettySize=auto;html=1;fontFamily=Helvetica;fontSize=12;fontColor=default;" edge="1" parent="1" source="fy3N8-9pnjikFsvQf7iu-16" target="fy3N8-9pnjikFsvQf7iu-25">
          <mxGeometry relative="1" as="geometry" />
        </mxCell>
        <mxCell id="fy3N8-9pnjikFsvQf7iu-16" value="outTradeNo" style="whiteSpace=wrap;html=1;rounded=1;" vertex="1" parent="1">
          <mxGeometry x="520" y="370" width="120" height="60" as="geometry" />
        </mxCell>
        <mxCell id="fy3N8-9pnjikFsvQf7iu-28" value="" style="edgeStyle=orthogonalEdgeStyle;curved=1;rounded=0;orthogonalLoop=1;jettySize=auto;html=1;fontFamily=Helvetica;fontSize=12;fontColor=default;" edge="1" parent="1" source="fy3N8-9pnjikFsvQf7iu-19" target="fy3N8-9pnjikFsvQf7iu-27">
          <mxGeometry relative="1" as="geometry" />
        </mxCell>
        <mxCell id="fy3N8-9pnjikFsvQf7iu-19" value="outTradeNo" style="whiteSpace=wrap;html=1;rounded=1;" vertex="1" parent="1">
          <mxGeometry x="350" y="370" width="120" height="60" as="geometry" />
        </mxCell>
        <mxCell id="fy3N8-9pnjikFsvQf7iu-25" value="PAY1" style="whiteSpace=wrap;html=1;rounded=1;" vertex="1" parent="1">
          <mxGeometry x="520" y="510" width="120" height="60" as="geometry" />
        </mxCell>
        <mxCell id="fy3N8-9pnjikFsvQf7iu-27" value="PAY1" style="whiteSpace=wrap;html=1;rounded=1;" vertex="1" parent="1">
          <mxGeometry x="350" y="510" width="120" height="60" as="geometry" />
        </mxCell>
        <mxCell id="fy3N8-9pnjikFsvQf7iu-29" value="PAY0" style="whiteSpace=wrap;html=1;rounded=1;" vertex="1" parent="1">
          <mxGeometry x="190" y="510" width="120" height="60" as="geometry" />
        </mxCell>
      </root>
    </mxGraphModel>
  </diagram>
</mxfile>
